<svg xmlns="http://www.w3.org/2000/svg" width="148" height="28" viewBox="0 0 148 28"><title>Fill 1</title><path d="M11.48 4.31c-1.72 0-2.22.75-2.22 2.38v2.72h4.61l-.46 4.39H9.26v13.31H3.72V13.8H0V9.41h3.72V6.77c0-4.43 1.85-6.77 7-6.77 1.11 0 2.42.07 3.22.18v4.13m5.59 14.55c0 2.64 1 4.38 3.57 4.38 2.27 0 3.42-1.6 3.42-4.12v-1.79c0-2.53-1.15-4.13-3.42-4.13-2.57 0-3.57 1.75-3.57 4.39zM14 17.67C14 12.72 16.42 9 21.49 9c2.77 0 4.45 1.38 5.26 3.09V9.37h5.3v17.7h-5.3V24.4c-.77 1.71-2.49 3.05-5.26 3.05-5.07 0-7.49-3.72-7.49-8.67zM43.45 9c2.15 0 4.19.45 5.3 1.19l-1.23 3.79c-.84-.41-2.23-.81-3.69-.81-2.99 0-4.3 1.67-4.3 4.53v1.04c0 2.87 1.31 4.54 4.3 4.54 1.46 0 2.85-.41 3.69-.82l1.23 3.8c-1.11.74-3.15 1.19-5.3 1.19-6.49 0-9.45-3.39-9.45-8.82v-.82C34 12.38 36.96 9 43.45 9m18.76 7.59v-.45c0-1.93-.8-3.46-3.22-3.46-2.5 0-3.46 1.53-3.46 3.91zM50 17.33C50 12.31 52.96 9 58.99 9c5.68 0 8.18 3.35 8.18 8.26v2.82H55.53c.12 2.42 1.23 3.5 4.3 3.5 2.08 0 4.27-.41 5.88-1.08l1 3.68c-1.46.75-4.46 1.3-7.11 1.3-6.99 0-9.6-3.38-9.6-8.59zm31.68.22c0-2.49-1-4.35-3.65-4.35-2.27 0-3.5 1.57-3.5 4.09v1.86c0 2.53 1.23 4.1 3.5 4.1 2.65 0 3.65-1.86 3.65-4.36zm5.53 1.23c0 4.95-2.46 8.67-7.53 8.67-2.77 0-4.69-1.34-5.46-3.05v2.68H69V.48L74.53 0v11.83C75.34 10.27 77.1 9 79.68 9c5.07 0 7.53 3.72 7.53 8.67zm14.47-1.37c0-2.35-1-4.21-3.58-4.21-2.57 0-3.57 1.86-3.57 4.21v1.63c0 2.34 1 4.2 3.57 4.2 2.58 0 3.58-1.86 3.58-4.2zM89 17.78C89 12.68 91.99 9 98.1 9c6.11 0 9.11 3.68 9.11 8.78v.89c0 5.1-3 8.78-9.11 8.78-6.11 0-9.1-3.68-9.1-8.78zm32.68-.37c0-2.35-1-4.21-3.58-4.21-2.57 0-3.57 1.86-3.57 4.21v1.63c0 2.34 1 4.2 3.57 4.2 2.58 0 3.58-1.86 3.58-4.2zm-12.68.37c0-5.1 2.99-8.78 9.1-8.78 6.11 0 9.11 3.68 9.11 8.78v.89c0 5.1-3 8.78-9.11 8.78-6.11 0-9.1-3.68-9.1-8.78zm26.53.04l5.46-8.45h5.87l-5.72 8.74 5.95 8.97h-5.87l-5.69-8.67v8.67H130V.49l5.53-.49" fill="#fefefe"/></svg>