<svg xmlns="http://www.w3.org/2000/svg" width="145" height="39" viewBox="0 0 145 39"><title>Fill 1</title><path d="M131.63 8v9.75H122v2.72h9.63v9.97h2.94v-9.97h9.74v-2.72h-9.74V8z" fill="#fff"/><path d="M28.8 13.57H15.13v4.06h9.69c-.48 5.69-5.21 8.12-9.67 8.12-5.72 0-10.7-4.5-10.7-10.81C4.45 8.8 9.2 4.07 15.16 4.07c4.6 0 7.31 2.93 7.31 2.93l2.84-2.94S21.66 0 15.01 0C6.55 0 0 7.15 0 14.87c0 7.57 6.16 14.95 15.23 14.95 7.97 0 13.81-5.47 13.81-13.56 0-1.7-.24-2.69-.24-2.69z" fill="#4885ed"/><path d="M34.2 20.56c0 3.4 2.41 5.85 5.47 5.85 2.78 0 5.38-2.3 5.38-5.82 0-3.59-2.61-5.83-5.37-5.83-3.1 0-5.48 2.48-5.48 5.8zm5.49 9.61c-5.79 0-9.69-4.47-9.69-9.66 0-5.12 4.02-9.51 9.63-9.51 4.61 0 9.61 3.27 9.61 9.62 0 5.54-4.3 9.55-9.55 9.55z" fill="#db3236"/><path d="M55.2 20.56c0 3.4 2.41 5.85 5.47 5.85 2.78 0 5.38-2.3 5.38-5.82 0-3.59-2.61-5.83-5.37-5.83-3.1 0-5.48 2.48-5.48 5.8zm5.49 9.61c-5.79 0-9.69-4.47-9.69-9.66 0-5.12 4.02-9.51 9.63-9.51 4.61 0 9.61 3.27 9.61 9.62 0 5.54-4.3 9.55-9.55 9.55z" fill="#f4c20d"/><path d="M81.57 14.76c-2.71 0-5.36 2.19-5.36 5.87 0 3.54 2.56 5.77 5.3 5.77 2.59 0 5.17-2.06 5.17-5.8 0-3.69-2.59-5.84-5.11-5.84zm4.79-1.56v-1.62h4.01V28.8c0 6.76-3.9 9.99-9.02 9.99-4.68 0-7.3-2.88-8.61-5.64l3.68-1.54c.51 1.23 1.98 3.41 4.9 3.41 3.03 0 5.04-1.98 5.04-5.29v-1.89c-1.07 1.25-2.53 2.33-5.25 2.33-4.42 0-9.11-3.83-9.11-9.59 0-5.07 4.05-9.58 9.19-9.58 2.24 0 3.93.87 5.17 2.2z" fill="#4885ed"/><path d="M112.64 16.73c-.53-1.11-1.79-2.04-3.54-2.04-2.77 0-5.4 2.85-5.03 5.63zm4.26-.11l.66 1.56-12.84 5.33c.77 1.43 2.01 2.91 4.7 2.91 2.4 0 3.83-1.31 4.69-2.64l3.31 2.2c-1.48 1.99-3.97 4.21-8.02 4.21-4.86 0-9.4-3.58-9.4-9.62 0-5.7 4.08-9.57 8.93-9.57 3.83 0 6.73 2.56 7.97 5.62z" fill="#db3236"/><path d="M93 29.25h4.22V1H93z" fill="#3cba54"/></svg>