<svg xmlns="http://www.w3.org/2000/svg" width="16" height="24" viewBox="0 0 16 24"><path fill="#ffee50" d="M7.9 20.4l-.34-.52c-.99-1.5-5.93-9.13-5.93-12.08A6.24 6.24 0 0 1 7.9 1.61a6.24 6.24 0 0 1 6.27 6.19c0 2.95-4.93 10.58-5.92 12.08zM0 7.8c0 1.63 1.15 4.51 3.32 8.3a87.14 87.14 0 0 0 3.91 6.19l.67.96.67-.96c.74-1.06 7.23-10.51 7.23-14.49 0-4.3-3.54-7.8-7.9-7.8C3.55 0 0 3.5 0 7.8z"/><path fill="#ffee50" d="M6 8.01c0 1.1.91 2 2.03 2 1.12 0 2.03-.9 2.03-2C10.06 6.9 9.15 6 8.03 6 6.91 6 6 6.9 6 8.01z"/></svg>