<svg xmlns="http://www.w3.org/2000/svg" width="51" height="76" viewBox="0 0 51 76"><title>Fill 1</title><path d="M25.43 9.35c8.03 0 14.56 6.51 14.56 14.55 0 8.04-6.53 14.56-14.56 14.56-8.04 0-14.55-6.52-14.55-14.56 0-8.04 6.51-14.55 14.55-14.55zm0-9.35C11.39 0 0 11.39 0 25.43c0 20.11 25.43 49.88 25.43 49.88s25.42-29.88 25.42-49.88C50.85 11.39 39.47 0 25.43 0z" fill="#fff"/><path d="M31.33 24.16c0 3.41-2.76 6.18-6.17 6.18S19 27.57 19 24.16c0-3.4 2.75-6.16 6.16-6.16s6.17 2.76 6.17 6.16" fill="#fff"/></svg>