<svg xmlns="http://www.w3.org/2000/svg" width="52" height="77" viewBox="0 0 52 77"><title>Fill 1</title><path d="M51.67 36.09c0 4.61-3.74 8.35-8.34 8.35S35 40.7 35 36.09C35 31.48 43.33 17 43.33 17s8.34 14.48 8.34 19.09m0 32c0 4.61-3.74 8.35-8.34 8.35S35 72.7 35 68.09C35 63.48 43.33 49 43.33 49s8.34 14.48 8.34 19.09m-35-32c0 4.61-3.74 8.35-8.34 8.35S0 40.7 0 36.09C0 31.48 8.33 17 8.33 17s8.34 14.48 8.34 19.09m0 32c0 4.61-3.74 8.35-8.34 8.35S0 72.7 0 68.09C0 63.48 8.33 49 8.33 49s8.34 14.48 8.34 19.09m18-49c0 4.61-3.74 8.35-8.34 8.35S18 23.7 18 19.09C18 14.48 26.33 0 26.33 0s8.34 14.48 8.34 19.09m0 32c0 4.61-3.74 8.35-8.34 8.35S18 55.7 18 51.09C18 46.48 26.33 32 26.33 32s8.34 14.48 8.34 19.09" fill="#fff"/></svg>