<svg xmlns="http://www.w3.org/2000/svg" width="60" height="78" viewBox="0 0 60 78"><title>icon</title><path d="M52.42 24.9c-1.95 12.95-10.97 13.09-10.97 13.09 5.91-9.66 3.47-21.07 3.35-21.3C43.38 8.73 38.17 0 38.17 0 37.1 9.34 21.64 16.54 14.82 27.64c0 0-5.97 8.27-5.92 22.16 0 0-4.99-5.85-1.32-19.4 0 0-5.28 6.24-6.89 12.63C.15 45.19 0 46.74 0 48.19 0 62.42 9.92 74.3 23.21 77.38c-5.98-12.64 9.07-24.01 9.07-24.01s-.62 5.51 4.32 10.67c0 0 6.82 5.98 5.65 11.51C52.7 70.87 60 60.39 60 48.19c0-8.51-2.37-15.1-7.58-23.29" fill="#fff"/></svg>