<svg xmlns="http://www.w3.org/2000/svg" width="96" height="49" viewBox="0 0 96 49"><title>Fill 1</title><path d="M94.81 32.28c.64-1.32.67-2.85.09-4.2a5.086 5.086 0 0 0-3.12-2.83l-.17-.06s2.34-.49 3.38-2.76c.62-1.34.66-2.86.07-4.21-1-2.29-2.46-4.29-4.34-5.95A5.147 5.147 0 0 0 87.35 11h-.03c-3.01 0-4.31 2.39-4.31 2.39v-8.3c0-2.81-2.25-5.07-5.11-5.09h-.03c-1.21 0-3.44.4-4.92.8-1.5.4-2.96.93-4.34 1.59a5.11 5.11 0 0 0-2.68 3.08 5.11 5.11 0 0 0 .46 4.06l4.16 7.19s-1-.6-2.39-.6c-2.2 0-4.15 1.4-4.85 3.47-.05.15-.1.3-.14.46a9.11 9.11 0 0 0-2.45-1.67c-1.33-.64-2.83-.97-4.32-.97-1.13 0-2.25.19-3.28.56-.77-.4-1.65-.62-2.57-.62-1.3 0-2.5.45-3.45 1.21v-1c0-3.02-2.46-5.48-5.49-5.48-3.03 0-5.5 2.46-5.5 5.48v3.02c-2.07-2.16-4.83-3.05-7.33-3.05-1.86 0-4.35.61-6.44 2.32-.7-.97-1.7-1.69-2.87-2.05-.53-.17-1.08-.25-1.64-.25-2.45 0-4.58 1.56-5.3 3.89l-.23.76-.76-1.55c-.76-1.64-2.69-3.11-4.97-3.12-.79 0-1.62.18-2.45.58a5.476 5.476 0 0 0-2.82 3.17c-.48 1.4-.38 2.9.27 4.22l5.26 10.74c-1.56.61-2.72 1.86-3.2 3.55-.47 1.63-.17 3.33.81 4.65.77 1.04 2.28 2.3 5.14 2.37h.31c4 0 6.93-1.97 8.04-5.41.45-1.41.98-3.08 1.52-4.8.1.22.2.43.31.64 1.74 3.28 4.9 5.08 8.92 5.08 3.79 0 6.45-1.27 8.09-2.93a5.492 5.492 0 0 0 4.84 2.88c1.3 0 2.5-.45 3.45-1.21v1c0 3.02 2.46 5.48 5.49 5.48 2.99 0 5.42-2.38 5.5-5.34 0 0 .09.01.24.01.95 0 4.47-.18 6.91-2.77.29-.31.81-.84 1.34-1.73.67.37 1.45.58 2.27.58.67 0 1.3-.14 1.88-.39.31.4.69.76 1.12 1.05 2.04 1.4 4.4 2.35 6.83 2.75.28.05.56.08.85.08 2.76 0 5.01-2.16 5.1-4.92l.01-.17.09.14c.94 1.5 2.56 2.4 4.34 2.4 1.18 0 2.34-.42 3.25-1.17 1.9-1.56 3.47-3.56 4.53-5.78" fill="#fefefe"/><path d="M82.96 37.1l-.1-.15v.17a5.088 5.088 0 0 1-5.11 4.92c-.28 0-.57-.03-.85-.07a17.2 17.2 0 0 1-6.83-2.76 4.87 4.87 0 0 1-1.12-1.05 4.72 4.72 0 0 1-4.15-.19c-.53.89-1.05 1.42-1.34 1.73-2.43 2.59-5.96 2.77-6.91 2.77-.15 0-.24-.01-.24-.01a5.495 5.495 0 0 1-5.49 5.34c-3.04 0-5.5-2.46-5.5-5.48v-1c-.95.76-2.15 1.21-3.45 1.21-2.09 0-3.91-1.16-4.84-2.88-1.64 1.66-4.3 2.93-8.09 2.93-4.01 0-7.18-1.8-8.92-5.08-.11-.21-.21-.42-.31-.64-.54 1.72-1.07 3.39-1.52 4.8-1.11 3.44-4.04 5.41-8.04 5.41h-.31C6.99 47 5.47 45.75 4.7 44.7c-.98-1.32-1.28-3.02-.81-4.65.48-1.69 1.64-2.94 3.2-3.55L1.83 25.76a5.429 5.429 0 0 1-.26-4.22 5.46 5.46 0 0 1 2.81-3.17c.84-.4 1.66-.57 2.45-.57 2.28 0 4.22 1.47 4.97 3.11l.76 1.55.23-.76a5.527 5.527 0 0 1 5.3-3.89c.56 0 1.11.08 1.65.25 1.17.36 2.16 1.08 2.86 2.05 2.09-1.71 4.58-2.32 6.45-2.32 2.49 0 5.25.89 7.32 3.05v-3.02c0-3.02 2.47-5.48 5.5-5.48s5.5 2.46 5.5 5.48v1c.94-.76 2.14-1.21 3.45-1.21.92 0 1.79.22 2.56.63 1.04-.38 2.15-.57 3.29-.57 1.49 0 2.98.34 4.31.97a9.11 9.11 0 0 1 2.45 1.67c.04-.15.09-.31.14-.46.7-2.07 2.65-3.46 4.85-3.46 1.4 0 2.4.59 2.4.59l-4.17-7.19a5.067 5.067 0 0 1-.45-4.06 5.094 5.094 0 0 1 2.67-3.08 25.62 25.62 0 0 1 4.34-1.59c1.48-.4 3.71-.8 4.93-.8h.02c2.86.02 5.11 2.29 5.11 5.09v8.3s1.31-2.39 4.31-2.39h.03c1.24.01 2.44.45 3.37 1.27 1.89 1.66 3.35 3.66 4.34 5.95.59 1.35.55 2.87-.06 4.21-1.05 2.27-3.38 2.76-3.38 2.76l.16.06a5.086 5.086 0 0 1 3.04 7.03 17.18 17.18 0 0 1-4.54 5.78c-.91.76-2.06 1.17-3.25 1.17a5.1 5.1 0 0 1-4.33-2.39zm12.53-14.3c.65-1.42.68-3.03.07-4.42a16.975 16.975 0 0 0-4.4-6.04A5.435 5.435 0 0 0 87.61 11h-.03c-2.1 0-3.4 1.1-4.05 1.85v-7.5c0-1.43-.55-2.77-1.56-3.77-1-1.01-2.36-1.57-3.8-1.58h-.03c-1.24 0-3.52.41-5 .81-1.51.4-2.98.94-4.38 1.6a5.359 5.359 0 0 0-2.34 7.51l3.77 6.5c-.44-.15-1.06-.3-1.77-.3-2.31 0-4.36 1.47-5.09 3.65-.01.02-.02.05-.03.07a9.564 9.564 0 0 0-2.21-1.44c-1.37-.65-2.9-.99-4.42-.99-1.13 0-2.23.18-3.27.54-.8-.4-1.69-.6-2.58-.6-1.14 0-2.25.33-3.19.96v-.49c0-3.16-2.58-5.74-5.76-5.74-3.18 0-5.76 2.58-5.76 5.74v2.4c-1.87-1.72-4.41-2.69-7.06-2.69-1.09 0-3.84.22-6.4 2.21a5.73 5.73 0 0 0-2.84-1.93c-.55-.17-1.13-.26-1.72-.26-2.56 0-4.79 1.64-5.55 4.08l-.04.12-.46-.95c-.72-1.57-2.66-3.26-5.21-3.27-.87 0-1.73.21-2.56.61-1.4.66-2.44 1.84-2.95 3.32-.51 1.46-.41 3.03.27 4.42l5.14 10.49c-1.53.68-2.62 1.95-3.09 3.61-.49 1.71-.18 3.49.85 4.88.8 1.09 2.38 2.4 5.34 2.47.11 0 .21.01.32.01 4.13 0 7.15-2.04 8.29-5.6.37-1.15.81-2.55 1.32-4.17l.03.06c1.78 3.36 5.03 5.21 9.15 5.21 4.13 0 6.62-1.45 8.03-2.77a5.764 5.764 0 0 0 4.9 2.72c1.13 0 2.25-.33 3.19-.96v.49c0 3.16 2.58 5.74 5.76 5.74 1.51 0 2.93-.58 4.02-1.64a5.723 5.723 0 0 0 1.72-3.69c1.04 0 4.61-.21 7.09-2.85l.04-.04c.28-.3.73-.77 1.21-1.53.67.33 1.42.5 2.17.5.62 0 1.22-.11 1.8-.34.31.37.66.69 1.05.96 2.07 1.41 4.47 2.38 6.94 2.79a5.353 5.353 0 0 0 6.21-4.51 5.327 5.327 0 0 0 4.22 2.04c1.25 0 2.46-.43 3.42-1.22 1.93-1.59 3.52-3.62 4.6-5.88.67-1.39.7-3 .09-4.41a5.297 5.297 0 0 0-2.74-2.77c.82-.34 2.11-1.1 2.83-2.67z" fill="#cccccb"/><path d="M43.88 36.17c0 1.07-.87 1.94-1.94 1.94-1.07 0-1.94-.87-1.94-1.94V16.93a1.94 1.94 0 0 1 3.88 0zM29.2 24.77c.92 0 2.95.45 3.06 3.16 0 .14-.07.23-.16.23h-5.81c-.09 0-.17-.1-.17-.28.13-2.67 2.16-3.11 3.08-3.11zm4.74 6.58c.05 0 .1-.01.15-.01.96-.07 1.88-.87 1.88-2.15v-.11c-.35-7.06-4.9-8.08-6.96-8.08-2.15 0-7.01 1.26-7.01 9.11.04 2.95.67 8.59 6.9 8.59 5.39 0 6.59-3.09 6.59-3.88 0-1.17-.97-2.16-2.07-1.78-.9.3-2.12 2.07-4.1 2.07-2.82 0-3.18-2.57-3.18-3.12 0-.45.23-.63.83-.65zm-22.67 4.88L5.2 23.86c-.48-.99-.07-2.18.92-2.66s2.18-.07 2.67.92l4.69 9.58 2.89-9.3a1.983 1.983 0 0 1 2.49-1.31c1.06.32 1.64 1.44 1.32 2.48 0 0-3.25 10.58-5.2 16.66-.65 2.01-2.34 3.01-4.87 2.95-2.51-.06-2.9-1.54-2.62-2.51.3-1.07 1.2-1.39 2.07-1.39 2.27.02 2.56-1.35 1.71-3.05"/><path d="M66.86 34.01h.21c.18 0 .34-.01.34-.2 0-.17-.15-.19-.28-.19h-.27zm-.18-.55h.46c.3 0 .44.11.44.36 0 .22-.14.32-.33.34l.36.55h-.18l-.35-.54h-.22v.54h-.18zm1.32.61c0-.52-.4-.91-.91-.91s-.92.39-.92.92c0 .52.41.91.92.91s.91-.39.91-.92zm.18 0c0 .62-.5 1.08-1.09 1.08-.59 0-1.09-.46-1.09-1.07 0-.62.5-1.08 1.09-1.08.59 0 1.09.46 1.09 1.07z" fill="#221e1f"/><path d="M59.26 30.69c0 1.53 0 4.27-2.78 4.27-2.8 0-2.79-2.74-2.79-4.27V29.3c0-1.53 0-4.28 2.79-4.28s2.78 2.75 2.78 4.28zm.32-9c-1.82-.86-4.05-.84-5.77.14-.34.2-.68.42-.99.65-.2-.85-.97-1.48-1.88-1.48-1.07 0-1.94.87-1.94 1.93v19.24c0 1.07.87 1.93 1.94 1.93 1.07 0 1.94-.86 1.94-1.93v-5.05s1.31 1.59 3.38 1.65c7.37.19 6.89-7.8 6.85-9.55 0-2.53-.31-6.01-3.53-7.53z"/><path d="M68.85 20.16l6.78 3.29c1.3.63 1.1 2.54-.31 2.89l-7.31 1.82c-.91.23-1.81-.4-1.92-1.33-.23-1.99 0-3.96.61-5.78.3-.88 1.31-1.3 2.15-.89M71.4 33.1l5.04-5.58c.97-1.08 2.76-.36 2.71 1.09l-.26 7.5c-.04.94-.89 1.63-1.81 1.48-1.95-.33-3.8-1.08-5.41-2.18-.77-.53-.9-1.62-.27-2.31m12.64-7.02l7.17 2.32c.89.29 1.33 1.3.92 2.14-.84 1.75-2.06 3.32-3.58 4.58-.73.59-1.81.42-2.31-.38l-4-6.37c-.77-1.22.42-2.74 1.8-2.29m7.19-4.89l-7.24 2.07c-1.4.4-2.53-1.15-1.72-2.35l4.22-6.23a1.56 1.56 0 0 1 2.31-.3c1.45 1.28 2.63 2.86 3.43 4.7.37.86-.09 1.85-1 2.11M74.61 3.68c-1.31.34-2.55.8-3.73 1.36-.82.39-1.12 1.39-.67 2.17l7.08 12.22c.8 1.38 2.9.81 2.9-.77V4.55c0-.9-.77-1.62-1.67-1.55-1.3.11-2.61.33-3.91.68" fill="#d8272d"/></svg>